<mxfile host="app.diagrams.net" modified="2023-03-08T02:50:50.116Z" agent="5.0 (Windows NT 10.0; WOW64) AppleWebKit/537.36 (KHTML, like Gecko) Chrome/102.0.0.0 Safari/537.36" etag="CafyFO7Yzk5i1HxrlFoL" version="21.0.2" type="github">
  <diagram name="第 1 页" id="wbc2AzxYjQq-KRa8-sPH">
    <mxGraphModel dx="1465" dy="348" grid="1" gridSize="10" guides="1" tooltips="1" connect="1" arrows="1" fold="1" page="1" pageScale="1" pageWidth="827" pageHeight="1169" math="0" shadow="0">
      <root>
        <mxCell id="0" />
        <mxCell id="1" parent="0" />
        <mxCell id="GyODVoqhVY_m9yzGAI7D-1" value="" style="ellipse;whiteSpace=wrap;html=1;aspect=fixed;fillColor=#1A1A1A;" vertex="1" parent="1">
          <mxGeometry x="13" y="140" width="80" height="80" as="geometry" />
        </mxCell>
        <mxCell id="GyODVoqhVY_m9yzGAI7D-4" value="" style="endArrow=none;html=1;rounded=0;exitX=1;exitY=0.5;exitDx=0;exitDy=0;entryX=0;entryY=0.5;entryDx=0;entryDy=0;" edge="1" parent="1">
          <mxGeometry width="50" height="50" relative="1" as="geometry">
            <mxPoint x="343" y="182" as="sourcePoint" />
            <mxPoint x="513" y="182" as="targetPoint" />
            <Array as="points">
              <mxPoint x="353" y="182" />
              <mxPoint x="373" y="202" />
              <mxPoint x="383" y="182" />
              <mxPoint x="403" y="202" />
              <mxPoint x="413" y="182" />
              <mxPoint x="433" y="202" />
              <mxPoint x="443" y="182" />
              <mxPoint x="463" y="202" />
              <mxPoint x="473" y="182" />
              <mxPoint x="493" y="202" />
              <mxPoint x="503" y="182" />
            </Array>
          </mxGeometry>
        </mxCell>
        <mxCell id="GyODVoqhVY_m9yzGAI7D-5" value="" style="ellipse;whiteSpace=wrap;html=1;aspect=fixed;fillColor=#1A1A1A;" vertex="1" parent="1">
          <mxGeometry x="510" y="140" width="80" height="80" as="geometry" />
        </mxCell>
        <mxCell id="GyODVoqhVY_m9yzGAI7D-8" value="" style="group" vertex="1" connectable="0" parent="1">
          <mxGeometry x="103" y="140" width="240" height="80" as="geometry" />
        </mxCell>
        <mxCell id="GyODVoqhVY_m9yzGAI7D-2" value="" style="ellipse;whiteSpace=wrap;html=1;aspect=fixed;fillColor=#1A1A1A;" vertex="1" parent="GyODVoqhVY_m9yzGAI7D-8">
          <mxGeometry x="160" width="80" height="80" as="geometry" />
        </mxCell>
        <mxCell id="GyODVoqhVY_m9yzGAI7D-3" value="" style="endArrow=none;html=1;rounded=0;exitX=1;exitY=0.5;exitDx=0;exitDy=0;entryX=0;entryY=0.5;entryDx=0;entryDy=0;" edge="1" parent="GyODVoqhVY_m9yzGAI7D-8" source="GyODVoqhVY_m9yzGAI7D-1" target="GyODVoqhVY_m9yzGAI7D-2">
          <mxGeometry width="50" height="50" relative="1" as="geometry">
            <mxPoint x="60" y="70" as="sourcePoint" />
            <mxPoint x="110" y="60" as="targetPoint" />
            <Array as="points">
              <mxPoint y="40" />
              <mxPoint x="20" y="60" />
              <mxPoint x="30" y="40" />
              <mxPoint x="50" y="60" />
              <mxPoint x="60" y="40" />
              <mxPoint x="80" y="60" />
              <mxPoint x="90" y="40" />
              <mxPoint x="110" y="60" />
              <mxPoint x="120" y="40" />
              <mxPoint x="140" y="60" />
              <mxPoint x="150" y="40" />
            </Array>
          </mxGeometry>
        </mxCell>
        <mxCell id="GyODVoqhVY_m9yzGAI7D-12" value="" style="group;rotation=90;" vertex="1" connectable="0" parent="1">
          <mxGeometry x="445" y="305" width="230" height="80" as="geometry" />
        </mxCell>
        <mxCell id="GyODVoqhVY_m9yzGAI7D-13" value="" style="ellipse;whiteSpace=wrap;html=1;aspect=fixed;fillColor=#1A1A1A;rotation=90;" vertex="1" parent="GyODVoqhVY_m9yzGAI7D-12">
          <mxGeometry x="71.875" y="85" width="76.66666666666667" height="76.66666666666667" as="geometry" />
        </mxCell>
        <mxCell id="GyODVoqhVY_m9yzGAI7D-14" value="" style="endArrow=none;html=1;rounded=0;entryX=0;entryY=0.5;entryDx=0;entryDy=0;" edge="1" parent="GyODVoqhVY_m9yzGAI7D-12" target="GyODVoqhVY_m9yzGAI7D-13">
          <mxGeometry width="50" height="50" relative="1" as="geometry">
            <mxPoint x="110.20833333333334" y="-75" as="sourcePoint" />
            <mxPoint x="91.04166666666667" y="35" as="targetPoint" />
            <Array as="points">
              <mxPoint x="110" y="-85" />
              <mxPoint x="110.20833333333334" y="-75" />
              <mxPoint x="91.04166666666667" y="-55" />
              <mxPoint x="110.20833333333334" y="-45" />
              <mxPoint x="91.04166666666667" y="-25" />
              <mxPoint x="110.20833333333334" y="-15" />
              <mxPoint x="91.04166666666667" y="5" />
              <mxPoint x="110.20833333333334" y="15" />
              <mxPoint x="91.04166666666667" y="35" />
              <mxPoint x="110.20833333333334" y="45" />
              <mxPoint x="91.04166666666667" y="65" />
              <mxPoint x="110.20833333333334" y="75" />
            </Array>
          </mxGeometry>
        </mxCell>
        <mxCell id="GyODVoqhVY_m9yzGAI7D-16" value="" style="group;rotation=-153;" vertex="1" connectable="0" parent="1">
          <mxGeometry x="280" y="330" width="240" height="80" as="geometry" />
        </mxCell>
        <mxCell id="GyODVoqhVY_m9yzGAI7D-17" value="" style="ellipse;whiteSpace=wrap;html=1;aspect=fixed;fillColor=#1A1A1A;rotation=-153;" vertex="1" parent="GyODVoqhVY_m9yzGAI7D-16">
          <mxGeometry x="9" y="-36" width="80" height="80" as="geometry" />
        </mxCell>
        <mxCell id="GyODVoqhVY_m9yzGAI7D-18" value="" style="endArrow=none;html=1;rounded=0;entryX=0;entryY=0.5;entryDx=0;entryDy=0;" edge="1" parent="GyODVoqhVY_m9yzGAI7D-16" target="GyODVoqhVY_m9yzGAI7D-17">
          <mxGeometry width="50" height="50" relative="1" as="geometry">
            <mxPoint x="236" y="99" as="sourcePoint" />
            <mxPoint x="138" y="27" as="targetPoint" />
            <Array as="points">
              <mxPoint x="227" y="94" />
              <mxPoint x="218" y="68" />
              <mxPoint x="200" y="81" />
              <mxPoint x="191" y="54" />
              <mxPoint x="173" y="67" />
              <mxPoint x="165" y="40" />
              <mxPoint x="147" y="54" />
              <mxPoint x="138" y="27" />
              <mxPoint x="120" y="40" />
              <mxPoint x="111" y="13" />
              <mxPoint x="93" y="26" />
            </Array>
          </mxGeometry>
        </mxCell>
        <mxCell id="GyODVoqhVY_m9yzGAI7D-19" value="" style="group;rotation=55;" vertex="1" connectable="0" parent="1">
          <mxGeometry x="20" y="280" width="240" height="80" as="geometry" />
        </mxCell>
        <mxCell id="GyODVoqhVY_m9yzGAI7D-20" value="" style="ellipse;whiteSpace=wrap;html=1;aspect=fixed;fillColor=#1A1A1A;rotation=55;" vertex="1" parent="GyODVoqhVY_m9yzGAI7D-19">
          <mxGeometry x="126" y="65" width="80" height="80" as="geometry" />
        </mxCell>
        <mxCell id="GyODVoqhVY_m9yzGAI7D-21" value="" style="endArrow=none;html=1;rounded=0;entryX=0;entryY=0.5;entryDx=0;entryDy=0;" edge="1" parent="GyODVoqhVY_m9yzGAI7D-19" target="GyODVoqhVY_m9yzGAI7D-20">
          <mxGeometry width="50" height="50" relative="1" as="geometry">
            <mxPoint x="45" y="-67" as="sourcePoint" />
            <mxPoint x="98" y="43" as="targetPoint" />
            <Array as="points">
              <mxPoint x="51" y="-58" />
              <mxPoint x="47" y="-31" />
              <mxPoint x="69" y="-34" />
              <mxPoint x="64" y="-6" />
              <mxPoint x="86" y="-9" />
              <mxPoint x="80" y="19" />
              <mxPoint x="103" y="15" />
              <mxPoint x="98" y="43" />
              <mxPoint x="120" y="40" />
              <mxPoint x="115" y="68" />
              <mxPoint x="137" y="65" />
            </Array>
          </mxGeometry>
        </mxCell>
        <mxCell id="GyODVoqhVY_m9yzGAI7D-23" value="" style="group;rotation=-205;" vertex="1" connectable="0" parent="1">
          <mxGeometry x="-90" y="410" width="240" height="80" as="geometry" />
        </mxCell>
        <mxCell id="GyODVoqhVY_m9yzGAI7D-24" value="" style="ellipse;whiteSpace=wrap;html=1;aspect=fixed;fillColor=#1A1A1A;rotation=-205;" vertex="1" parent="GyODVoqhVY_m9yzGAI7D-23">
          <mxGeometry x="8" y="34" width="80" height="80" as="geometry" />
        </mxCell>
        <mxCell id="GyODVoqhVY_m9yzGAI7D-25" value="" style="endArrow=none;html=1;rounded=0;entryX=0;entryY=0.5;entryDx=0;entryDy=0;" edge="1" parent="GyODVoqhVY_m9yzGAI7D-23" target="GyODVoqhVY_m9yzGAI7D-24">
          <mxGeometry width="50" height="50" relative="1" as="geometry">
            <mxPoint x="238" y="-15" as="sourcePoint" />
            <mxPoint x="121" y="18" as="targetPoint" />
            <Array as="points">
              <mxPoint x="228" y="-11" />
              <mxPoint x="202" y="-20" />
              <mxPoint x="202" y="2" />
              <mxPoint x="175" y="-7" />
              <mxPoint x="174" y="15" />
              <mxPoint x="148" y="5" />
              <mxPoint x="148" y="27" />
              <mxPoint x="121" y="18" />
              <mxPoint x="120" y="40" />
              <mxPoint x="93" y="30" />
              <mxPoint x="92" y="53" />
            </Array>
          </mxGeometry>
        </mxCell>
      </root>
    </mxGraphModel>
  </diagram>
</mxfile>
